<?xml version="1.0" encoding="UTF-8"?>
<svg version="1.1" xmlns="http://www.w3.org/2000/svg" width="1771" height="1781">
<path d="M0 0 C0.90843155 -0.00282738 1.8168631 -0.00565475 2.75282288 -0.00856781 C7.5829394 -0.02347001 12.41302688 -0.03274981 17.24316406 -0.03710938 C21.1423503 -0.04144627 25.04130928 -0.05516276 28.94042969 -0.078125 C55.32976081 -0.2301876 81.38700943 0.63421769 107.65625 3.203125 C108.81006165 3.31436707 109.96387329 3.42560913 111.15264893 3.54022217 C117.60585135 4.17811515 124.03875608 4.92680749 130.46875 5.765625 C131.88892929 5.94779068 131.88892929 5.94779068 133.33779907 6.13363647 C204.21548062 15.34195671 274.05151865 34.97907166 339.65625 63.203125 C340.81672852 63.70150879 341.97720703 64.19989258 343.17285156 64.71337891 C372.09794647 77.21791994 400.53290863 91.14331829 427.65625 107.203125 C428.53297363 107.71665527 429.40969727 108.23018555 430.31298828 108.75927734 C454.87753514 123.18777275 478.87672958 139.08742684 501.65625 156.203125 C502.35524414 156.72632324 503.05423828 157.24952148 503.77441406 157.78857422 C518.25304911 168.65569189 532.28205605 180.06420766 546.04101562 191.82617188 C547.70459543 193.24433846 549.37520876 194.65387817 551.046875 196.0625 C565.79608345 208.53325378 579.57667278 221.95750517 593.21142578 235.62792969 C595.67756342 238.09948525 598.14908104 240.56557204 600.62109375 243.03125 C602.21646697 244.62728323 603.81153039 246.2236262 605.40625 247.8203125 C606.13239502 248.54443329 606.85854004 249.26855408 607.60668945 250.01461792 C611.61681641 254.04301624 615.45879771 258.16454454 619.16555786 262.47431946 C621.23299323 264.87199342 623.3831117 267.19028337 625.53125 269.515625 C629.6218556 274.00110052 633.50442843 278.60893044 637.31640625 283.33203125 C639.39377614 285.88105774 641.5064343 288.39095507 643.64257812 290.89038086 C657.73968506 307.38905189 670.86981039 324.73773469 682.9921875 342.73486328 C684.19706556 344.52202836 685.40591001 346.30652149 686.6171875 348.08935547 C702.90330593 372.07484079 718.10617888 396.55243827 731.65625 422.203125 C732.13868164 423.10772461 732.62111328 424.01232422 733.11816406 424.94433594 C744.13735883 445.6116736 754.48359352 466.56870532 763.46875 488.203125 C763.86634521 489.15569183 763.86634521 489.15569183 764.27197266 490.12750244 C768.65625 500.67141458 768.65625 500.67141458 768.65625 504.203125 C742.60708642 505.96990069 716.53808325 507.21733225 690.45793104 508.4252038 C685.76281026 508.64295336 681.06776487 508.86230582 676.3727175 509.08163154 C665.29969109 509.59887112 654.22654709 510.11353389 643.15332031 510.62646484 C631.77611471 511.15351881 620.39911391 511.68483899 609.0222038 512.21823037 C599.18628676 512.67923445 589.35025378 513.13770313 579.51412356 513.59413612 C573.66785047 513.86544357 567.82162356 514.13765967 561.97550583 514.4122963 C556.49402979 514.66968554 551.01241466 514.92388462 545.5306797 515.17569733 C543.53045933 515.26809717 541.5302888 515.36158405 539.53017616 515.45628738 C498.74476417 517.38474538 462.91386965 513.32772113 431.28515625 485.0859375 C425.04421529 479.18029839 420.2364687 472.43264862 415.65625 465.203125 C415.17768555 464.45611328 414.69912109 463.70910156 414.20605469 462.93945312 C410.52500839 457.02838573 407.78150021 451.06511993 405.28125 444.578125 C401.53537628 435.1783108 397.49022761 426.09347887 392.65625 417.203125 C392.27887695 416.50880371 391.90150391 415.81448242 391.51269531 415.09912109 C371.69862669 379.11411113 341.08955503 355.70253472 301.9609375 343.41796875 C274.59449852 335.53617182 246.12537543 331.62456464 217.65625 331.203125 C216.34188965 331.17734375 215.0275293 331.1515625 213.67333984 331.125 C129.4376496 329.56700399 45.37338912 347.37464617 -31.34375 382.203125 C-32.28573242 382.62819336 -33.22771484 383.05326172 -34.19824219 383.49121094 C-53.77269117 392.3850375 -72.78958209 402.7426782 -90.34375 415.203125 C-91.22160156 415.82058594 -92.09945312 416.43804687 -93.00390625 417.07421875 C-95.81177778 419.0821499 -98.5830872 421.13076762 -101.34375 423.203125 C-102.13604004 423.79601318 -102.13604004 423.79601318 -102.94433594 424.40087891 C-114.11717524 432.81148969 -124.26705004 442.19396872 -134.22265625 452 C-134.79701416 452.56557617 -135.37137207 453.13115234 -135.96313477 453.71386719 C-137.44575173 455.1737005 -137.44575173 455.1737005 -138.34375 457.203125 C-139.00375 457.203125 -139.66375 457.203125 -140.34375 457.203125 C-140.57964844 457.74324219 -140.81554687 458.28335937 -141.05859375 458.83984375 C-142.69790458 461.8543819 -144.75623671 464.34072584 -146.90625 467.015625 C-160.01740472 483.76320685 -169.11384665 502.62366793 -174.34375 523.203125 C-174.57835937 524.0796875 -174.81296875 524.95625 -175.0546875 525.859375 C-180.13562503 547.36131351 -176.89900231 570.44155003 -170.34375 591.203125 C-169.98539063 592.33878906 -169.62703125 593.47445312 -169.2578125 594.64453125 C-162.28631787 614.39709938 -149.75321217 631.70686324 -135.53125 646.86328125 C-133.60266854 648.92617464 -131.77375232 651.03260971 -129.96875 653.203125 C-127.83670846 655.6397439 -125.92105127 657.31971253 -123.34375 659.203125 C-123.34375 659.863125 -123.34375 660.523125 -123.34375 661.203125 C-122.48136719 661.58017578 -122.48136719 661.58017578 -121.6015625 661.96484375 C-119.04750885 663.36559636 -117.31419986 664.99152558 -115.21875 667.015625 C-91.42579809 688.7821581 -61.45507591 704.87561829 -32.34375 718.203125 C-31.36164551 718.656875 -30.37954102 719.110625 -29.36767578 719.578125 C8.67549767 737.08009795 48.70421416 749.6048198 89.65625 758.203125 C90.73326172 758.43193359 91.81027344 758.66074219 92.91992188 758.89648438 C107.67726824 761.97808579 122.51904507 764.07871394 137.46875 765.953125 C138.32055847 766.0602179 139.17236694 766.16731079 140.04998779 766.27764893 C158.01118642 768.51514872 175.62625804 769.38965238 193.7277832 769.38842773 C197.29065296 769.39059274 200.85320125 769.40873993 204.41601562 769.42773438 C255.29554319 769.55410901 316.50921921 764.29831082 356.6171875 728.85546875 C358.65625 727.203125 358.65625 727.203125 360.65625 727.203125 C360.65625 726.543125 360.65625 725.883125 360.65625 725.203125 C362.0546875 723.8984375 362.0546875 723.8984375 364.03125 722.328125 C382.75656128 706.3061157 394.62729313 682.43101139 403.71875 660.015625 C409.3984049 646.02225632 415.79261858 633.71813363 425.65625 622.203125 C426.18476562 621.45546875 426.71328125 620.7078125 427.2578125 619.9375 C427.71929688 619.36515625 428.18078125 618.7928125 428.65625 618.203125 C429.31625 618.203125 429.97625 618.203125 430.65625 618.203125 C430.85863281 617.65140625 431.06101562 617.0996875 431.26953125 616.53125 C433.20128578 613.28807901 435.90207517 611.23372236 438.84375 608.953125 C439.46378906 608.47149902 440.08382813 607.98987305 440.72265625 607.49365234 C462.10558731 591.33300841 488.83827742 584.75094345 515.34936523 584.91625977 C516.63562774 584.92103364 517.92189024 584.92580751 519.24713039 584.93072605 C541.90688792 585.11206813 564.55883552 586.42909181 587.19017813 587.49388155 C594.37372175 587.83166831 601.55761493 588.16173354 608.74152344 588.49165267 C621.55346174 589.08029774 634.36507453 589.67574415 647.17651367 590.27514648 C659.5825255 590.855575 671.98876087 591.43089336 684.39526367 592.00073242 C685.16333267 592.03601097 685.93140167 592.07128951 686.72274549 592.1076371 C687.48955687 592.1428576 688.25636825 592.17807811 689.04641634 592.2143659 C703.24128145 592.86639501 717.43592344 593.52317209 731.63046752 594.18215038 C736.63134734 594.41420576 741.63229108 594.64485052 746.63325691 594.87504387 C753.34698244 595.18417791 760.06050881 595.49734469 766.77392197 595.8132 C769.23696984 595.92852315 771.70007539 596.0426218 774.16324043 596.15541458 C777.52057903 596.30936863 780.87767966 596.46775766 784.23475647 596.62730408 C785.70012859 596.69297188 785.70012859 596.69297188 787.19510418 596.75996631 C791.755578 596.98137704 796.16478722 597.31577137 800.65625 598.203125 C811.83164985 643.04589536 819.72043275 688.1215113 823.65625 734.203125 C823.76211426 735.38551758 823.86797852 736.56791016 823.97705078 737.78613281 C827.936375 783.80464919 827.13515892 831.27421163 822.65625 877.203125 C822.58363953 877.95867676 822.51102905 878.71422852 822.43621826 879.49267578 C819.47326403 910.073085 814.5027963 940.35126286 808.09375 970.390625 C807.91010895 971.25582764 807.7264679 972.12103027 807.53726196 973.01245117 C805.57498481 982.20141603 803.43911755 991.31953094 800.94140625 1000.37890625 C800.72850449 1001.15276169 800.51560272 1001.92661713 800.29624939 1002.72392273 C798.7850462 1008.0743288 798.7850462 1008.0743288 797.65625 1009.203125 C796.27970157 1009.3590963 794.89567648 1009.44973081 793.51179218 1009.51358128 C792.16323201 1009.57926897 792.16323201 1009.57926897 790.7874282 1009.64628369 C789.28865214 1009.71195149 789.28865214 1009.71195149 787.75959778 1009.77894592 C786.70689766 1009.82880298 785.65419754 1009.87866003 784.56959742 1009.9300279 C781.01249649 1010.09730633 777.45511843 1010.2577258 773.89770508 1010.41821289 C771.35871042 1010.53618538 768.81973477 1010.65456746 766.28077698 1010.77333069 C760.07936856 1011.06227942 753.87776897 1011.34676516 747.67605988 1011.62917788 C740.44816413 1011.95848729 733.22049378 1012.29261941 725.99282678 1012.62690537 C713.08402248 1013.22376212 700.17500537 1013.81588775 687.26586914 1014.40551758 C674.75755066 1014.97684139 662.24941305 1015.55194037 649.74145508 1016.13110352 C636.12154882 1016.76174823 622.50155161 1017.39035881 608.88138694 1018.01539987 C607.42522949 1018.08222588 605.96907206 1018.1490524 604.51291466 1018.21587944 C603.79651095 1018.24875378 603.08010723 1018.28162811 602.34199432 1018.31549864 C597.31356112 1018.5463643 592.2851924 1018.77860278 587.25684547 1019.01133919 C580.46665076 1019.32555415 573.67630221 1019.6362245 566.88583946 1019.94460106 C564.4002671 1020.05797991 561.91474357 1020.17243558 559.42927551 1020.28807831 C525.69524406 1021.85577663 525.69524406 1021.85577663 512.90625 1020.015625 C511.97232422 1019.88325439 511.03839844 1019.75088379 510.07617188 1019.61450195 C483.69434305 1015.62180675 461.54417042 1005.03499818 442.65625 986.203125 C441.95242188 985.5225 441.24859375 984.841875 440.5234375 984.140625 C428.32332578 971.4959748 421.46684254 954.85881745 414.79541016 938.90527344 C398.50748637 900.2694525 372.93258199 870.15795126 333.5625 853.92773438 C318.28848575 847.98472025 302.80033294 843.92385088 286.65625 841.203125 C285.32859619 840.97568604 285.32859619 840.97568604 283.97412109 840.74365234 C254.45150156 835.83881289 223.21837364 834.33917543 193.38830566 836.91166687 C190.11774961 837.16708379 186.85195383 837.35129502 183.57517242 837.50230694 C170.87604048 838.09450955 158.22631525 839.18124772 145.5625 840.27734375 C143.15205413 840.4837414 140.74158709 840.68989191 138.33110046 840.89581299 C131.93073702 841.44345293 125.53072712 841.99512194 119.13079453 842.54777145 C115.12191658 842.89358668 111.11293904 843.23822047 107.10391235 843.58230591 C78.3459587 846.05078022 49.58962071 848.53468515 20.84375 851.140625 C-10.87955255 854.01647605 -42.61421398 856.76177479 -74.34956771 859.5007785 C-79.52562407 859.9476772 -84.70152072 860.39639477 -89.87734985 860.84591675 C-96.22880055 861.39749825 -102.58046259 861.94656668 -108.93240142 862.49249929 C-112.23231377 862.77617145 -115.53209076 863.06128006 -118.83169174 863.34855461 C-122.47045285 863.66510479 -126.10955769 863.97736924 -129.7487793 864.28857422 C-130.81181684 864.38202086 -131.87485437 864.47546751 -132.97010517 864.57174587 C-134.45663231 864.69755079 -134.45663231 864.69755079 -135.97319031 864.82589722 C-136.82271113 864.89922209 -137.67223196 864.97254696 -138.54749584 865.0480938 C-142.14109935 865.24733201 -145.7446276 865.203125 -149.34375 865.203125 C-149.34375 875.103125 -149.34375 885.003125 -149.34375 895.203125 C-145.1664624 895.18741455 -145.1664624 895.18741455 -140.90478516 895.17138672 C-126.59281188 895.1216601 -112.28079601 895.09495202 -97.96875 895.078125 C-97.28757771 895.07732264 -96.60640543 895.07652028 -95.90459156 895.07569361 C-33.56669872 895.0059498 28.76687386 895.49239655 91.10199583 896.03878188 C100.21631755 896.11862838 109.33065762 896.19606504 118.44500732 896.27264404 C130.87036733 896.37733196 143.29566003 896.48829577 155.72092438 896.60375786 C160.37599417 896.64688857 165.03107529 896.68787459 169.68618011 896.72703743 C175.08737365 896.77265296 180.48850146 896.8230042 185.8896153 896.8772223 C187.86443246 896.89625937 189.83926675 896.91360185 191.81411433 896.92916656 C194.48870344 896.95052757 197.16316183 896.97791213 199.837677 897.00694275 C201.01827843 897.01424639 201.01827843 897.01424639 202.2227304 897.02169758 C207.54208001 897.08895501 207.54208001 897.08895501 208.65625 898.203125 C209.03191063 901.02487248 209.34977674 903.83227471 209.62890625 906.6640625 C209.7599601 907.95457016 209.7599601 907.95457016 209.8936615 909.27114868 C210.0782327 911.10192869 210.2604989 912.93294227 210.44067383 914.76416016 C210.71422807 917.53236573 210.99817818 920.29936129 211.28320312 923.06640625 C212.16434758 931.80306182 212.93436613 940.41073215 212.65625 949.203125 C196.92958337 950.88797702 181.18546081 952.1066925 165.41015625 953.234375 C162.73314361 953.42791006 160.05614995 953.6216909 157.37918091 953.81582642 C151.65453653 954.2306246 145.92977352 954.64374702 140.20492554 955.0557251 C125.55509468 956.11019985 110.90601822 957.17509519 96.25696492 958.24030924 C93.85780686 958.41474454 91.45864218 958.58908866 89.05947685 958.76342392 C56.52841678 961.1278424 24.00266546 963.56060942 -8.52163696 966.01602936 C-15.38873748 966.53443977 -22.25589547 967.05208842 -29.12304688 967.56982422 C-30.48623531 967.67260279 -31.84942374 967.77538154 -33.21261215 967.87816048 C-35.92592809 968.0827318 -38.63924478 968.28729304 -41.35256195 968.49184799 C-44.0415746 968.69457218 -46.73058506 968.89732552 -49.41959381 969.10010147 C-76.97520102 971.17796345 -104.53168457 973.24381314 -132.08944702 975.29290771 C-136.84459231 975.64654838 -141.59965492 976.00127018 -146.35464478 976.35699463 C-151.83176765 976.76670665 -157.30904208 977.17432483 -162.78644943 977.58021545 C-164.77589872 977.7279833 -166.76529308 977.87649275 -168.75462723 978.02580261 C-171.45597996 978.22841269 -174.15752181 978.42828261 -176.85913086 978.62744141 C-178.02868553 978.7161233 -178.02868553 978.7161233 -179.22186756 978.80659676 C-183.27211222 979.10200017 -187.28285475 979.26228654 -191.34375 979.203125 C-191.01375 979.863125 -190.68375 980.523125 -190.34375 981.203125 C-190.10492813 983.81247508 -189.92104673 986.40073862 -189.78125 989.015625 C-189.71647461 990.05493164 -189.71647461 990.05493164 -189.65039062 991.11523438 C-189.38755727 995.75027965 -189.32367297 1000.36793857 -189.33227539 1005.01049805 C-189.33476036 1006.75377632 -189.33476036 1006.75377632 -189.33729553 1008.53227234 C-189.33942551 1009.41365372 -189.34155548 1010.2950351 -189.34375 1011.203125 C-188.63281824 1011.20032376 -187.92188649 1011.19752253 -187.18941134 1011.1946364 C-166.18843892 1011.12428804 -145.20000551 1011.35680722 -124.20213735 1011.69572389 C-119.62794897 1011.7690275 -115.05371765 1011.83956306 -110.47949219 1011.9105072 C-101.57105972 1012.04912919 -92.66267009 1012.1903325 -83.75429557 1012.33262461 C-76.51820636 1012.44819443 -69.28210538 1012.56299709 -62.04599571 1012.67727852 C-41.48682893 1013.0020605 -20.92769483 1013.32881088 -0.36860064 1013.65815704 C1.28495897 1013.68464592 1.28495897 1013.68464592 2.97192383 1013.71166992 C4.62751667 1013.73819199 4.62751667 1013.73819199 6.31655584 1013.76524986 C24.28627189 1014.05299628 42.2560598 1014.33595659 60.22588488 1014.61680465 C78.7195598 1014.90589422 97.213176 1015.19851006 115.70673639 1015.49483877 C126.07363922 1015.66087864 136.44056058 1015.82545054 146.80754662 1015.98621941 C155.61002884 1016.12275365 164.41245169 1016.26254563 173.21481349 1016.40664237 C177.70537607 1016.48005928 182.19594968 1016.55191701 186.68660164 1016.61966705 C190.79172384 1016.68163892 194.89675144 1016.74795504 199.00174669 1016.8178193 C200.49077275 1016.84238282 201.97982668 1016.86531936 203.46890452 1016.88651287 C205.48413443 1016.91542925 207.49926996 1016.95071755 209.5143919 1016.98637295 C210.63615155 1017.0042198 211.7579112 1017.02206666 212.91366357 1017.04045433 C215.65625 1017.203125 215.65625 1017.203125 218.65625 1018.203125 C218.67937851 1025.74810733 218.69716769 1033.29308601 218.70806217 1040.83809566 C218.71328989 1044.34121385 218.7203855 1047.84430785 218.73168945 1051.34741211 C218.74459206 1055.37093341 218.74947912 1059.39442914 218.75390625 1063.41796875 C218.75906754 1064.68148666 218.76422882 1065.94500458 218.76954651 1067.24681091 C218.76962204 1068.407939 218.76969757 1069.56906708 218.76977539 1070.76538086 C218.771996 1071.79352402 218.77421661 1072.82166718 218.77650452 1073.88096619 C218.65625 1076.203125 218.65625 1076.203125 217.65625 1077.203125 C215.15488 1077.36332465 212.67815252 1077.457784 210.17358398 1077.51269531 C209.36770938 1077.53417822 208.56183477 1077.55566113 207.73153973 1077.57779503 C204.95524247 1077.65043115 202.17881956 1077.71581639 199.40234375 1077.78125 C197.3509738 1077.8330135 195.29961298 1077.88514004 193.2482605 1077.93759155 C187.44145228 1078.08449396 181.63449451 1078.22453787 175.82748795 1078.36334991 C172.08924941 1078.45323321 168.35106165 1078.54499048 164.61288452 1078.63739014 C81.05926122 1080.70144726 -2.50134737 1082.49256385 -86.06010199 1084.33389246 C-89.21628151 1084.40345427 -92.37245929 1084.47309484 -95.52863693 1084.54274178 C-99.58108152 1084.63215118 -103.6335344 1084.72117149 -107.68599319 1084.80993462 C-117.61476957 1085.02801333 -127.54328941 1085.25397918 -137.47158813 1085.49285889 C-140.42740133 1085.56311553 -143.38321839 1085.63320756 -146.33903658 1085.70325351 C-149.04034154 1085.76804613 -151.741574 1085.83539254 -154.44281292 1085.90287209 C-166.07840602 1086.18372759 -177.70497743 1086.25136264 -189.34375 1086.203125 C-189.33351807 1087.10409912 -189.32328613 1088.00507324 -189.31274414 1088.93334961 C-189.21976721 1098.40186065 -189.72297088 1107.7577016 -190.34375 1117.203125 C-173.21548802 1118.98056106 -156.0556553 1120.18438535 -138.87663746 1121.33576787 C-134.81874327 1121.60839072 -130.76107922 1121.88440159 -126.7033844 1122.15997314 C-119.68781694 1122.63597539 -112.67211226 1123.10990846 -105.65630722 1123.58239555 C-95.46621723 1124.26867062 -85.27635453 1124.95827452 -75.08654167 1125.64865065 C-58.48622901 1126.77326795 -41.88574911 1127.89539608 -25.28515625 1129.01586914 C-9.28019871 1130.09614589 6.72469549 1131.17735251 22.72949219 1132.26000977 C23.71225416 1132.32648901 24.69501613 1132.39296825 25.70755877 1132.46146201 C35.52448379 1133.1255502 45.34139832 1133.78979339 55.15830985 1134.45408101 C59.00912095 1134.71465582 62.85993253 1134.97522335 66.7107444 1135.23578673 C68.61499055 1135.36463725 70.51923651 1135.49349055 72.42348228 1135.62234665 C82.60571846 1136.31134053 92.78797831 1136.99998122 102.97031021 1137.68755913 C103.85919968 1137.74758503 104.74808916 1137.80761092 105.66391467 1137.86945579 C109.19451678 1138.10786355 112.72511966 1138.34625969 116.25572951 1138.58455267 C125.3751752 1139.20005773 134.49453784 1139.81672055 143.61358833 1140.43805599 C145.92491599 1140.59547048 148.23624502 1140.75286476 150.54757567 1140.91023537 C152.04046938 1141.01188428 153.53336087 1141.11356576 155.02625005 1141.21528111 C163.56052279 1141.79634616 172.09537542 1142.36502225 180.63202155 1142.91038674 C184.8057703 1143.17754968 188.97908708 1143.45107305 193.15235114 1143.72569096 C195.84684486 1143.90015031 198.54182413 1144.06454476 201.2369709 1144.22854519 C202.78504442 1144.33052252 204.33308168 1144.43305262 205.881073 1144.53627014 C207.18328733 1144.61804032 208.48550167 1144.6998105 209.82717705 1144.78405857 C210.76077112 1144.92235049 211.6943652 1145.06064241 212.65625 1145.203125 C213.93741621 1147.76545741 213.60376399 1149.17603794 213.31079102 1152.02001953 C213.21061172 1153.02090607 213.11043243 1154.0217926 213.00721741 1155.05300903 C212.83542213 1156.67805862 212.83542213 1156.67805862 212.66015625 1158.3359375 C212.54776108 1159.44290985 212.43536591 1160.5498822 212.31956482 1161.69039917 C211.95818051 1165.23690185 211.58855616 1168.78249156 211.21875 1172.328125 C210.9727654 1174.7278091 210.7273157 1177.12754809 210.48242188 1179.52734375 C209.88091977 1185.42002542 209.2692422 1191.31162971 208.65625 1197.203125 C173.78759904 1198.11507984 138.92034966 1198.4665928 104.04183465 1198.69374946 C96.36604471 1198.74386 88.69028301 1198.79782838 81.01451994 1198.85187345 C67.29916733 1198.94832945 53.58379542 1199.04166624 39.8684082 1199.13305664 C26.65485138 1199.22110749 13.44131039 1199.31117038 0.2277832 1199.40356445 C-0.99747346 1199.41213135 -0.99747346 1199.41213135 -2.24748278 1199.42087132 C-3.89385055 1199.43238421 -5.54021832 1199.44389747 -7.18658608 1199.4554111 C-8.40570151 1199.46393659 -8.40570151 1199.46393659 -9.64944553 1199.47263432 C-10.46055988 1199.4783075 -11.27167422 1199.48398069 -12.10736779 1199.48982579 C-24.84921159 1199.57887969 -37.59106636 1199.66634657 -50.33292289 1199.75355779 C-54.14603092 1199.77966292 -57.9591384 1199.80584225 -61.77224469 1199.83219838 C-69.76011296 1199.88740515 -77.74798428 1199.94205406 -85.73586804 1199.99497778 C-89.02679207 1200.01678944 -92.3177122 1200.03897546 -95.60862923 1200.06183243 C-113.52099031 1200.18590293 -131.43094477 1200.21789168 -149.34375 1200.203125 C-149.01375 1209.773125 -148.68375 1219.343125 -148.34375 1229.203125 C-146.16519409 1229.45574097 -143.98663818 1229.70835693 -141.74206543 1229.96862793 C-138.60343277 1230.33258817 -135.4648021 1230.69656562 -132.32617188 1231.06054688 C-131.05616894 1231.20782632 -131.05616894 1231.20782632 -129.76050937 1231.3580811 C-119.04023662 1232.60131897 -108.32001301 1233.84497938 -97.59986877 1235.08932495 C-96.56398898 1235.20956319 -95.52810918 1235.32980143 -94.46083909 1235.45368326 C-90.15187447 1235.95384331 -85.84291016 1236.4540061 -81.53394997 1236.95420432 C-69.11035911 1238.39634128 -56.68666119 1239.83754464 -44.26266479 1241.27618408 C-30.61111945 1242.8569794 -16.95973892 1244.43918997 -3.30859375 1246.0234375 C-2.17459538 1246.15503155 -1.04059701 1246.2866256 0.12776494 1246.42220736 C29.05230496 1249.77945645 57.97130929 1253.17729951 86.87939072 1256.67353058 C91.64712886 1257.24998229 96.4152099 1257.82355809 101.18338013 1258.39642334 C102.71986008 1258.58109388 104.2563394 1258.76576968 105.79281807 1258.9504509 C108.04271938 1259.22088118 110.29262398 1259.49128384 112.54254508 1259.76154947 C120.32408677 1260.69656823 128.10469474 1261.63819608 135.8828125 1262.60131836 C197.8806209 1270.27391667 264.58913493 1275.80124413 324.65625 1254.203125 C325.43033203 1253.92629883 326.20441406 1253.64947266 327.00195312 1253.36425781 C343.39599004 1247.39868577 358.4770128 1239.78071879 371.65625 1228.203125 C372.460625 1227.53023437 373.265 1226.85734375 374.09375 1226.1640625 C393.96608238 1209.08627686 406.91541533 1186.12829692 416.65625 1162.140625 C428.93378985 1131.95410195 447.67868098 1107.5246079 478.09375 1094.265625 C495.81529357 1086.8917745 514.19550824 1084.03371988 533.33485413 1084.09986877 C534.24159915 1084.10183339 535.14834417 1084.103798 536.08256632 1084.10582215 C546.41653974 1084.16366993 556.72738273 1084.62132342 567.04858398 1085.10522461 C569.19953649 1085.20252061 571.35050759 1085.29940656 573.50149536 1085.3959198 C579.27133863 1085.65604455 585.04089457 1085.92208139 590.81040454 1086.18948436 C596.87322575 1086.46964881 602.93627041 1086.74489989 608.99928284 1087.02088928 C619.15893888 1087.48412455 629.31841252 1087.951205 639.4777832 1088.4206543 C651.21749868 1088.96308388 662.95747814 1089.49948146 674.69761604 1090.03268427 C686.02417797 1090.54723073 697.35054893 1091.06586881 708.67683601 1091.58642769 C713.48644255 1091.80741457 718.29611037 1092.02699181 723.10583305 1092.24543571 C728.75732821 1092.50230521 734.4086469 1092.76276253 740.05984879 1093.02600288 C742.13264964 1093.12198356 744.2055079 1093.21673377 746.27842522 1093.31016541 C749.10643308 1093.43783704 751.93419871 1093.56996515 754.76194763 1093.70323181 C755.9924218 1093.75722677 755.9924218 1093.75722677 757.24775404 1093.81231254 C761.4557524 1094.01570911 765.5079837 1094.40752635 769.65625 1095.203125 C767.21852221 1103.0105556 764.10944444 1110.46009007 760.84375 1117.953125 C760.56069 1118.60418213 760.27763 1119.25523926 759.98599243 1119.92602539 C742.52995616 1159.98583438 722.1130668 1198.92371581 697.89892578 1235.33398438 C696.6532811 1237.2075906 695.4177127 1239.08753663 694.18359375 1240.96875 C676.23267018 1268.23098217 656.42940409 1294.28672232 635.1081543 1318.99731445 C631.95342435 1322.66075785 628.87623414 1326.37455867 625.84375 1330.140625 C622.88125957 1333.79169429 619.82086764 1337.17198505 616.43153381 1340.42689514 C614.68766442 1342.17169384 613.08952905 1343.97995204 611.48999023 1345.85717773 C607.49644161 1350.45030067 603.24945421 1354.75405891 598.94140625 1359.05078125 C598.12683456 1359.86630966 597.31226288 1360.68183807 596.4730072 1361.52207947 C594.76065807 1363.23510508 593.04706158 1364.94688465 591.33227539 1366.6574707 C588.72622985 1369.25816052 586.12556478 1371.86414456 583.52539062 1374.47070312 C581.85188301 1376.14354986 580.17806518 1377.81608634 578.50390625 1379.48828125 C577.7359523 1380.25825943 576.96799835 1381.02823761 576.17677307 1381.82154846 C572.03216178 1385.94844737 567.80552679 1389.91688339 563.36871338 1393.72877502 C560.97528091 1395.78940718 558.66345873 1397.93519034 556.34375 1400.078125 C551.85476943 1404.17192709 547.24381524 1408.05782167 542.515625 1411.87109375 C540.0185887 1413.90761106 537.56471052 1415.98570477 535.12231445 1418.0871582 C527.61684242 1424.53078503 519.81948233 1430.54336379 511.91748047 1436.49072266 C509.69397642 1438.17455524 507.48828078 1439.87946527 505.28515625 1441.58984375 C435.33540213 1495.49097544 354.51220056 1535.35801194 229.89147949 1574.6217041 C227.66371724 1575.20118265 225.43773439 1575.78713507 223.21191406 1576.37402344 C189.03153099 1585.34506362 154.42321916 1591.39881399 119.34375 1595.578125 C118.33697205 1595.69972992 117.33019409 1595.82133484 116.29290771 1595.94662476 C86.78072022 1599.46479214 57.36585998 1600.5883856 27.67592621 1600.52098083 C25.17532704 1600.51553035 22.67473736 1600.51317033 20.1741333 1600.5111084 C-4.05237076 1600.47999933 -28.12329867 1600.02967609 -52.23156738 1597.42773438 C-54.36271913 1597.20110782 -56.49487059 1596.98910458 -58.62792969 1596.78125 C-142.13601298 1588.58985942 -224.93659688 1566.21530758 -301.33642578 1531.56640625 C-304.40606664 1530.1748756 -307.48202799 1528.79801781 -310.55859375 1527.421875 C-322.29356066 1522.14215807 -333.76447365 1516.5268809 -345.08447266 1510.41064453 C-347.30880797 1509.22180052 -349.546802 1508.06495801 -351.79296875 1506.91796875 C-380.47126047 1492.22364015 -408.07367793 1474.83647205 -434.34375 1456.203125 C-435.0661084 1455.69185059 -435.7884668 1455.18057617 -436.53271484 1454.65380859 C-446.10514475 1447.85948428 -455.48322741 1440.87272986 -464.65380859 1433.54589844 C-466.38173765 1432.17294122 -468.12050536 1430.81498836 -469.86328125 1429.4609375 C-477.29581648 1423.68178304 -484.55658044 1417.73969968 -491.70068359 1411.60791016 C-493.36245437 1410.18713318 -495.03358978 1408.77809747 -496.70703125 1407.37109375 C-505.18838681 1400.21332721 -513.30055603 1392.71222248 -521.35449219 1385.07910156 C-523.28069115 1383.26259287 -525.21916025 1381.46051424 -527.1640625 1379.6640625 C-533.664525 1373.6576588 -540.07215306 1367.57390646 -546.34375 1361.328125 C-547.24202515 1360.43673828 -547.24202515 1360.43673828 -548.15844727 1359.52734375 C-551.77445033 1355.89871321 -555.18120894 1352.13955641 -558.53125 1348.26513672 C-561.70530423 1344.65413699 -565.03137367 1341.18683114 -568.34375 1337.703125 C-573.47337922 1332.30817013 -578.48170929 1326.84076988 -583.34375 1321.203125 C-583.79524414 1320.68443848 -584.24673828 1320.16575195 -584.71191406 1319.63134766 C-590.90318079 1312.50541479 -596.74553221 1305.16839541 -602.43603516 1297.63842773 C-605.5102334 1293.57625642 -608.64036733 1289.57772056 -611.86645508 1285.63525391 C-618.17682533 1277.91597434 -623.81729537 1269.83879283 -629.3828125 1261.5703125 C-631.66770297 1258.17829528 -634.02563026 1254.85888579 -636.46875 1251.578125 C-653.06916484 1228.92869772 -667.24308042 1203.99871561 -680.34375 1179.203125 C-680.82086426 1178.30916016 -681.29797852 1177.41519531 -681.78955078 1176.49414062 C-723.15447484 1098.97801084 -750.78744607 1015.82289635 -773.34375 860.203125 C-773.43221191 859.04497787 -773.52067383 857.88683075 -773.61181641 856.69358826 C-774.37926568 845.65733209 -774.52453418 834.65792334 -774.546875 823.59765625 C-774.54970238 822.63248266 -774.55252975 821.66730907 -774.55544281 820.6728878 C-774.57033725 815.54681515 -774.57962342 810.42076983 -774.58398438 805.29467773 C-774.58833226 801.14614896 -774.60209395 796.99783247 -774.625 792.84936523 C-774.80769653 759.03617981 -773.40600289 725.76925736 -768.59375 692.265625 C-768.46614288 691.36021973 -768.33853577 690.45481445 -768.20706177 689.52197266 C-761.26481539 640.41747818 -750.16462446 592.23093831 -734.34375 545.203125 C-733.96299316 544.04893066 -733.58223633 542.89473633 -733.18994141 541.70556641 C-723.98542306 513.8080465 -712.62725719 486.86243011 -700.34375 460.203125 C-699.91964844 459.27902832 -699.49554687 458.35493164 -699.05859375 457.40283203 C-693.55634024 445.45177397 -687.61464216 433.76819298 -681.34375 422.203125 C-680.79976562 421.19749512 -680.25578125 420.19186523 -679.6953125 419.15576172 C-665.04822896 392.17664756 -648.82928926 366.41453839 -631.34375 341.203125 C-630.81523438 340.44016113 -630.28671875 339.67719727 -629.7421875 338.89111328 C-619.43149494 324.06949272 -608.24013141 309.90469817 -596.78369141 295.95898438 C-595.50009299 294.39376908 -594.22411928 292.822308 -592.94921875 291.25 C-583.71279961 279.86673749 -574.14156884 268.83129874 -564.12573242 258.12866211 C-562.75398979 256.64641329 -561.39447794 255.15283873 -560.0402832 253.65454102 C-553.09038363 245.98486929 -545.89368956 238.59814847 -538.56323242 231.29223633 C-536.64449495 229.37890306 -534.73122246 227.46021996 -532.81835938 225.54101562 C-527.3535361 220.07322919 -521.90922309 214.63905593 -516.01489258 209.62915039 C-513.26954607 207.28648144 -510.66298256 204.79662036 -508.03125 202.328125 C-503.21485199 197.84767354 -498.27522022 193.59354247 -493.14453125 189.47265625 C-490.61679883 187.42438214 -488.1342743 185.33590338 -485.66186523 183.22192383 C-465.87218381 166.306324 -444.79496899 150.9300588 -423.34375 136.203125 C-422.71259277 135.76726074 -422.08143555 135.33139648 -421.43115234 134.88232422 C-364.86313293 95.92229534 -301.96052205 66.04676823 -237.34375 43.203125 C-236.20190247 42.79933624 -236.20190247 42.79933624 -235.0369873 42.38739014 C-170.35834167 19.61920886 -102.63623418 6.49895159 -34.34375 1.203125 C-33.26127991 1.11579605 -32.17880981 1.0284671 -31.0635376 0.93849182 C-20.70076695 0.16668579 -10.38711095 0.02231686 0 0 Z " fill="#E53834" transform="translate(843.34375,67.796875)"/>
</svg>
